<svg width="100" height="80" viewBox="0 0 100 80" fill="none" xmlns="http://www.w3.org/2000/svg">
<rect x="1.5" y="1.5" width="97" height="77" rx="18.5" fill="#10333E" stroke="white" stroke-width="3"/>
<path d="M54.3182 33H50.0909C49.8409 31.7841 49.4034 30.7159 48.7784 29.7955C48.1648 28.875 47.4148 28.1023 46.5284 27.4773C45.6534 26.8409 44.6818 26.3636 43.6136 26.0455C42.5455 25.7273 41.4318 25.5682 40.2727 25.5682C38.1591 25.5682 36.2443 26.1023 34.5284 27.1705C32.8239 28.2386 31.4659 29.8125 30.4545 31.892C29.4545 33.9716 28.9545 36.5227 28.9545 39.5455C28.9545 42.5682 29.4545 45.1193 30.4545 47.1989C31.4659 49.2784 32.8239 50.8523 34.5284 51.9205C36.2443 52.9886 38.1591 53.5227 40.2727 53.5227C41.4318 53.5227 42.5455 53.3636 43.6136 53.0455C44.6818 52.7273 45.6534 52.2557 46.5284 51.6307C47.4148 50.9943 48.1648 50.2159 48.7784 49.2955C49.4034 48.3636 49.8409 47.2955 50.0909 46.0909H54.3182C54 47.875 53.4205 49.4716 52.5795 50.8807C51.7386 52.2898 50.6932 53.4886 49.4432 54.4773C48.1932 55.4545 46.7898 56.1989 45.233 56.7102C43.6875 57.2216 42.0341 57.4773 40.2727 57.4773C37.2955 57.4773 34.6477 56.75 32.3295 55.2955C30.0114 53.8409 28.1875 51.7727 26.858 49.0909C25.5284 46.4091 24.8636 43.2273 24.8636 39.5455C24.8636 35.8636 25.5284 32.6818 26.858 30C28.1875 27.3182 30.0114 25.25 32.3295 23.7955C34.6477 22.3409 37.2955 21.6136 40.2727 21.6136C42.0341 21.6136 43.6875 21.8693 45.233 22.3807C46.7898 22.892 48.1932 23.642 49.4432 24.6307C50.6932 25.608 51.7386 26.8011 52.5795 28.2102C53.4205 29.608 54 31.2045 54.3182 33ZM76.75 57V60.75H54.9318V57H76.75Z" fill="white"/>
</svg>
